<svg width="15" height="14" viewBox="0 0 15 14" fill="none" xmlns="http://www.w3.org/2000/svg">
<g id="Group">
<g id="Group_2">
<path id="Vector" d="M12.0426 2.98041C12.0424 2.98037 12.0422 2.9803 12.042 2.98027L8.30289 2.31195C8.02278 2.26189 7.76444 2.45069 7.72588 2.73374C7.68733 3.01675 7.88317 3.28677 8.1633 3.33685L10.6737 3.78553L2.01744 10.0799C1.79169 10.244 1.74674 10.5683 1.91703 10.8042C2.08733 11.0402 2.40836 11.0984 2.63411 10.9342L11.2903 4.63989L10.9329 7.1739C10.893 7.45667 11.0876 7.72758 11.3676 7.779C11.6476 7.83045 11.9068 7.64284 11.9467 7.36012L12.4791 3.58582C12.4791 3.5856 12.4791 3.58538 12.4792 3.58515C12.5187 3.30176 12.3224 3.03079 12.0426 2.98041Z" fill="white"/>
</g>
</g>
</svg>
